<svg xmlns="http://www.w3.org/2000/svg" viewBox="0 0 1600 900" role="img" aria-labelledby="title desc">
  <title id="title">:D'A EF'3() 'A*1'6J</title>
  <desc id="desc">*5EJE *,1J/J #FJB (#DH'F E1-'(</desc>
  <defs>
    <linearGradient id="bg" x1="0" y1="0" x2="1" y2="1">
      <stop offset="0" stop-color="#101024"/>
      <stop offset=".52" stop-color="#24135f"/>
      <stop offset="1" stop-color="#120d27"/>
    </linearGradient>
    <radialGradient id="glow" cx=".5" cy=".5" r=".5">
      <stop offset="0" stop-color="#a78bfa" stop-opacity=".85"/>
      <stop offset="1" stop-color="#6d28d9" stop-opacity="0"/>
    </radialGradient>
    <linearGradient id="line" x1="0" y1="0" x2="1" y2="0">
      <stop offset="0" stop-color="#c4b5fd" stop-opacity="0"/>
      <stop offset=".5" stop-color="#ddd6fe" stop-opacity=".9"/>
      <stop offset="1" stop-color="#c4b5fd" stop-opacity="0"/>
    </linearGradient>
    <filter id="blur">
      <feGaussianBlur stdDeviation="28"/>
    </filter>
  </defs>
  <rect width="1600" height="900" fill="url(#bg)"/>
  <circle cx="260" cy="110" r="340" fill="url(#glow)" opacity=".45" filter="url(#blur)"/>
  <circle cx="1370" cy="770" r="410" fill="url(#glow)" opacity=".38" filter="url(#blur)"/>
  <g fill="none" stroke="#c4b5fd" stroke-opacity=".16">
    <circle cx="800" cy="450" r="290"/>
    <circle cx="800" cy="450" r="345"/>
    <circle cx="800" cy="450" r="400"/>
  </g>
  <g transform="translate(800 420)">
    <path d="M0-132 28-39 120-68 54 0l66 68-92-29L0 132l-28-93-92 29 66-68-66-68 92 29Z" fill="#c4b5fd" opacity=".92"/>
    <circle r="52" fill="#f5f3ff"/>
    <circle r="27" fill="#7c3aed"/>
  </g>
  <rect x="510" y="618" width="580" height="3" rx="2" fill="url(#line)"/>
  <g fill="#ede9fe">
    <circle cx="455" cy="250" r="7" opacity=".65"/>
    <circle cx="1180" cy="205" r="5" opacity=".55"/>
    <circle cx="1245" cy="425" r="8" opacity=".45"/>
    <circle cx="350" cy="585" r="5" opacity=".5"/>
  </g>
</svg>
